HIERARCHY
ROOT SpineBase
{
  OFFSET 0.000000 0.000000 0.000000
  CHANNELS 6 Xposition Yposition Zposition Zrotation Xrotation Yrotation
  JOINT SpineMid
  {
    OFFSET 0.000000 26.395644 0.000000
    CHANNELS 3 Zrotation Xrotation Yrotation
    JOINT SpineShoulder
    {
      OFFSET -0.077943 19.622913 -0.578316
      CHANNELS 3 Zrotation Xrotation Yrotation
      JOINT Neck
      {
        OFFSET -0.051064 6.498643 -0.471097
        CHANNELS 3 Zrotation Xrotation Yrotation
        JOINT Head
        {
          OFFSET -3.209625 12.379809 0.951205
          CHANNELS 3 Zrotation Xrotation Yrotation
          End Site
          {
            OFFSET 0 0 0
          }
        }
      }
      JOINT ShoulderLeft
      {
        OFFSET -13.714814 -4.984553 6.940767
        CHANNELS 3 Zrotation Xrotation Yrotation
        JOINT ElbowLeft
        {
          OFFSET -3.037584 -23.177595 0.697018
          CHANNELS 3 Zrotation Xrotation Yrotation
          JOINT WristLeft
          {
            OFFSET -1.754331 -16.021037 -4.140428
            CHANNELS 3 Zrotation Xrotation Yrotation
            JOINT HandLeft
            {
              OFFSET 1.889146 -7.122702 -0.034224
              CHANNELS 3 Zrotation Xrotation Yrotation
              JOINT HandTipLeft
              {
                OFFSET 0.280850 -6.544114 -0.255874
                CHANNELS 3 Zrotation Xrotation Yrotation
                End Site
                {
                  OFFSET 0 0 0
                }
              }
              JOINT ThumbLeft
              {
                OFFSET 1.378672 0.042096 -3.289171
                CHANNELS 3 Zrotation Xrotation Yrotation
                End Site
                {
                  OFFSET 0 0 0
                }
              }
            }
          }
        }
      }
      JOINT ShoulderRight
      {
        OFFSET 11.182289 -3.475419 -7.214547
        CHANNELS 3 Zrotation Xrotation Yrotation
        JOINT ElbowRight
        {
          OFFSET 4.569225 -22.853010 -3.920316
          CHANNELS 3 Zrotation Xrotation Yrotation
          JOINT WristRight
          {
            OFFSET 0.599394 -18.414367 -4.841879
            CHANNELS 3 Zrotation Xrotation Yrotation
            JOINT HandRight
            {
              OFFSET -0.547618 -6.549775 0.311752
              CHANNELS 3 Zrotation Xrotation Yrotation
              JOINT HandTipRight
              {
                OFFSET 0.508627 -5.665367 -0.069509
                CHANNELS 3 Zrotation Xrotation Yrotation
                End Site
                {
                  OFFSET 0 0 0
                }
              }
              JOINT ThumbRight
              {
                OFFSET 1.456146 -0.023129 -3.177968
                CHANNELS 3 Zrotation Xrotation Yrotation
                End Site
                {
                  OFFSET 0 0 0
                }
              }
            }
          }
        }
      }
    }
  }
  JOINT HipLeft
  {
    OFFSET -5.276485 0.221005 -0.004778
    CHANNELS 3 Zrotation Xrotation Yrotation
    JOINT KneeLeft
    {
      OFFSET -1.126456 -24.932514 -0.371751
      CHANNELS 3 Zrotation Xrotation Yrotation
      JOINT AnkleLeft
      {
        OFFSET -1.987997 -30.358699 2.104712
        CHANNELS 3 Zrotation Xrotation Yrotation
        JOINT FootLeft
        {
          OFFSET -2.319417 -5.451365 -6.220142
          CHANNELS 3 Zrotation Xrotation Yrotation
          End Site
          {
            OFFSET 0 0 0
          }
        }
      }
    }
  }
  JOINT HipRight
  {
    OFFSET 4.337660 1.254965 -6.168409
    CHANNELS 3 Zrotation Xrotation Yrotation
    JOINT KneeRight
    {
      OFFSET 7.781032 -22.832656 2.018238
      CHANNELS 3 Zrotation Xrotation Yrotation
      JOINT AnkleRight
      {
        OFFSET 1.911813 -30.763654 8.584258
        CHANNELS 3 Zrotation Xrotation Yrotation
        JOINT FootRight
        {
          OFFSET -2.459371 -7.006677 -5.298305
          CHANNELS 3 Zrotation Xrotation Yrotation
          End Site
          {
            OFFSET 0 0 0
          }
        }
      }
    }
  }
}
MOTION
Frames: 13
Frame Time: 0.033333
50.359195 107.570207 332.824154 -0.000000 0.000000 32.663943 0.000000 0.000000 -32.663943 -0.000000 0.000000 0.000000 -0.000000 0.000000 0.000000 0.000000 0.000000 0.000000 -0.000000 0.000000 0.000000 -0.000000 0.000000 0.000000 -0.000000 0.000000 0.000000 -0.000000 0.000000 0.000000 0.000000 0.000000 0.000000 0.000000 0.000000 0.000000 -0.000000 0.000000 0.000000 -0.000000 0.000000 0.000000 -0.000000 0.000000 0.000000 -0.000000 0.000000 0.000000 0.000000 0.000000 0.000000 0.000000 0.000000 0.000000 0.000000 0.000000 -32.663943 -0.000000 0.000000 0.000000 -0.000000 0.000000 0.000000 0.000000 0.000000 0.000000 0.000000 0.000000 -32.663943 -0.000000 0.000000 0.000000 -0.000000 0.000000 0.000000 0.000000 0.000000 0.000000
50.373515 107.590947 332.825632 -0.036200 0.142652 32.655682 -0.046496 -0.139636 -32.655693 -0.000000 0.000000 0.000000 -0.000000 0.000000 0.000000 0.000000 0.000000 0.000000 -0.000000 0.000000 0.000000 2.909441 -1.012405 -0.618622 -6.368298 1.860096 1.018235 4.399096 2.759268 -0.129275 0.000000 0.000000 0.000000 0.000000 0.000000 0.000000 -0.000000 0.000000 0.000000 -0.000000 0.000000 0.000000 -0.921202 0.454825 -0.078181 1.524273 2.083751 0.297064 0.000000 0.000000 0.000000 0.000000 0.000000 0.000000 -0.046496 -0.139636 -32.655693 -0.000000 0.000000 0.000000 -0.320224 -1.511209 1.018266 0.000000 0.000000 0.000000 -0.046496 -0.139636 -32.655693 -0.000000 0.000000 0.000000 0.140546 1.001391 -0.456187 0.000000 0.000000 0.000000
50.389196 107.606941 332.828689 -0.061428 0.261130 32.640761 -0.089120 -0.253022 -32.640818 -0.000000 0.000000 0.000000 0.323519 -0.875860 -0.249431 0.000000 0.000000 0.000000 -0.000000 0.000000 0.000000 4.995313 -1.771811 -1.029471 -12.335351 3.472624 2.075485 9.468400 5.867321 -0.258114 0.000000 0.000000 0.000000 0.000000 0.000000 0.000000 -0.000000 0.000000 0.000000 -0.000000 0.000000 0.000000 -1.744211 0.856301 -0.141457 2.690309 3.770022 0.546091 0.000000 0.000000 0.000000 0.000000 0.000000 0.000000 -0.089120 -0.253022 -32.640818 -0.000000 0.000000 0.000000 -0.556022 -2.719038 1.823815 0.000000 0.000000 0.000000 -0.089120 -0.253022 -32.640818 -0.000000 0.000000 0.000000 0.313642 1.823138 -0.872468 0.000000 0.000000 0.000000
50.406237 107.618187 332.833325 -0.075679 0.355419 32.618973 -0.127847 -0.340155 -32.619118 -0.000000 0.000000 0.000000 0.428686 -1.192298 -0.337549 0.000000 0.000000 0.000000 -0.270673 -0.808429 0.095852 6.752807 -1.547867 -1.495013 -17.968117 4.903108 3.171996 15.002667 9.032571 -0.382805 0.000000 0.000000 0.000000 0.000000 0.000000 0.000000 -0.000000 0.000000 0.000000 -0.000000 0.000000 0.000000 -2.476789 1.207906 -0.192538 3.523712 5.093579 0.760266 0.000000 0.000000 0.000000 0.000000 0.000000 0.000000 -0.127847 -0.340155 -32.619118 -0.000000 0.000000 0.000000 -0.723528 -3.638098 2.432286 0.000000 0.000000 0.000000 -0.127847 -0.340155 -32.619118 -0.000000 0.000000 0.000000 0.515860 2.446984 -1.241990 0.000000 0.000000 0.000000
50.424639 107.624688 332.839541 -0.078955 0.425510 32.590176 -0.162670 -0.401038 -32.590452 -0.000000 0.000000 0.000000 0.496528 -1.427190 -0.401935 0.000000 0.000000 0.000000 -0.318938 -0.966553 0.114324 7.840542 -1.815273 -1.730719 -23.106045 6.162787 4.272969 20.572213 11.824838 -0.486708 0.000000 0.000000 0.000000 0.000000 0.000000 0.000000 -0.000000 0.000000 0.000000 -0.000000 0.000000 0.000000 -3.125498 1.512600 -0.233621 4.041087 6.081418 0.947736 0.000000 0.000000 0.000000 0.000000 0.000000 0.000000 -0.162670 -0.401038 -32.590452 -0.000000 0.000000 0.000000 -0.834628 -4.282174 2.856378 0.000000 0.000000 0.000000 -0.162670 -0.401038 -32.590452 -0.000000 0.000000 0.000000 0.743359 2.858058 -1.558121 0.000000 0.000000 0.000000
50.444401 107.626442 332.847337 -0.071256 0.471402 32.554300 -0.193604 -0.435678 -32.554743 -0.000000 0.000000 0.000000 0.527245 -1.580253 -0.442906 0.000000 0.000000 0.000000 -0.346284 -1.068842 0.126354 8.547324 -2.015187 -1.879974 -27.387040 7.232619 5.293019 25.551026 13.821773 -0.546881 0.000000 0.000000 0.000000 0.000000 0.000000 0.000000 -0.000000 0.000000 0.000000 0.317093 0.779503 -0.060047 -4.012628 0.991051 -0.261132 4.250351 6.751442 1.112620 0.000000 0.000000 0.000000 0.000000 0.000000 0.000000 -0.193604 -0.435678 -32.554743 -0.000000 0.000000 0.000000 -0.897570 -4.663281 3.106051 0.000000 0.000000 0.000000 -0.193604 -0.435678 -32.554743 -0.000000 0.000000 0.000000 0.992134 3.045363 -1.814694 0.000000 0.000000 0.000000
50.470762 107.622262 332.853117 -0.026402 0.478978 32.480440 -0.234948 -0.418232 -32.481188 -0.000000 0.000000 0.000000 0.449523 -1.572460 -0.436091 0.000000 0.000000 0.000000 -0.382364 -1.302695 0.154768 9.064445 -1.881390 -2.052899 -30.890209 8.767806 6.538339 31.066746 14.242326 -0.627974 0.000000 0.000000 0.000000 0.000000 0.000000 0.000000 -0.000000 0.000000 0.000000 0.192524 0.855657 -0.024159 -4.520965 1.082778 -0.337644 3.226263 8.304601 1.435079 0.000000 0.000000 0.000000 0.000000 0.000000 0.000000 -0.234948 -0.418232 -32.481188 -0.000000 0.000000 0.000000 -0.952730 -4.659542 3.167004 0.000000 0.000000 0.000000 -0.234948 -0.418232 -32.481188 -0.000000 0.000000 0.000000 1.734047 2.030161 -2.038049 0.000000 0.000000 0.000000
50.490614 107.610511 332.868527 0.018793 0.447280 32.420138 -0.255665 -0.367490 -32.421031 -0.000000 0.000000 0.000000 0.322142 -1.470899 -0.402089 0.000000 0.000000 0.000000 -0.318591 -1.227830 0.147825 9.353617 -2.190355 -2.080495 -34.539383 9.247059 7.342787 34.604929 15.781813 -0.474163 0.000000 0.000000 0.000000 0.000000 0.000000 0.000000 -0.000000 0.000000 0.000000 0.001963 0.840072 0.026763 -4.835939 1.208032 -0.411581 3.359378 9.059904 1.592571 0.000000 0.000000 0.000000 0.000000 0.000000 0.000000 -0.255665 -0.367490 -32.421031 -0.000000 0.000000 0.000000 -0.839719 -4.279223 2.860794 0.000000 0.000000 0.000000 -0.255665 -0.367490 -32.421031 -0.000000 0.000000 0.000000 1.809790 2.165252 -2.143942 0.000000 0.000000 0.000000
50.517346 107.592604 332.878030 0.054780 0.437701 32.353282 -0.280510 -0.340438 -32.354325 -0.000000 0.000000 0.000000 0.295214 -1.427527 -0.389240 0.000000 0.000000 0.000000 -0.258326 -0.951459 0.114722 8.325252 -2.324274 -1.780407 -25.779221 10.027311 6.269344 25.946467 14.328681 -0.850892 0.000000 0.000000 0.000000 0.000000 0.000000 0.000000 -0.000000 0.000000 0.000000 -0.000000 0.000000 0.000000 -5.043393 1.933844 -0.315823 3.378079 7.256225 1.408376 0.000000 0.000000 0.000000 0.000000 0.000000 0.000000 -0.280510 -0.340438 -32.354325 -0.000000 0.000000 0.000000 -0.747400 -4.214944 2.725867 0.000000 0.000000 0.000000 -0.961179 0.112369 -32.421873 0.817339 -0.017290 0.066317 1.903085 2.787638 -2.433226 0.000000 0.000000 0.000000
50.542265 107.576684 332.888247 0.067252 0.427866 32.294565 -0.285450 -0.325748 -32.295627 -0.000000 0.000000 0.000000 0.356969 -1.412326 -0.389263 0.000000 0.000000 0.000000 -0.243156 -0.864646 0.104120 7.878232 -2.386703 -1.652064 -23.327335 10.073724 5.862960 24.875215 14.607094 -1.081471 0.000000 0.000000 0.000000 0.000000 0.000000 0.000000 -0.000000 0.000000 0.000000 -0.408206 0.709509 0.132756 -5.179889 2.289667 -0.565731 3.397513 4.651524 1.403823 0.000000 0.000000 0.000000 0.000000 0.000000 0.000000 -0.285450 -0.325748 -32.295627 -0.000000 0.000000 0.000000 -0.756035 -3.924659 2.601219 0.000000 0.000000 0.000000 -0.995790 0.138890 -32.367480 0.294221 0.917882 -0.021635 1.918716 4.077086 -2.652546 0.000000 0.000000 0.000000
50.562584 107.561160 332.896702 0.060858 0.413429 32.247545 -0.272070 -0.317183 -32.248518 -0.000000 0.000000 0.000000 0.414772 -1.387101 -0.386485 0.000000 0.000000 0.000000 -0.248283 -0.812983 0.097272 7.346259 -2.432343 -1.504376 -19.983598 9.837333 5.203505 19.401526 10.012195 -0.888627 0.000000 0.000000 0.000000 0.000000 0.000000 0.000000 -0.000000 0.000000 0.000000 -0.461677 0.741862 0.148298 -5.520781 2.931374 -0.618120 3.626516 2.722909 1.360947 0.000000 0.000000 0.000000 0.000000 0.000000 0.000000 -0.272070 -0.317183 -32.248518 -0.000000 0.000000 0.000000 -0.741014 -3.532902 2.403947 0.000000 0.000000 0.000000 -1.039404 0.168542 -32.329548 0.358020 1.209004 0.007757 1.874259 3.214051 -2.435109 0.000000 0.000000 0.000000
50.571929 107.552092 332.898945 0.001183 0.409605 32.213952 -0.219357 -0.345921 -32.214618 -0.000000 0.000000 0.000000 0.803981 -1.442893 -0.425395 0.000000 0.000000 0.000000 -0.311480 -0.835680 0.097829 6.880445 -2.233491 -1.405481 -17.247432 8.563284 4.309861 14.440817 5.030812 -0.754475 0.000000 0.000000 0.000000 0.000000 0.000000 0.000000 -0.000000 0.000000 0.000000 -0.536659 0.775934 0.169725 -5.359543 2.258565 -0.618566 5.357034 1.492176 1.085368 0.000000 0.000000 0.000000 0.000000 0.000000 0.000000 -0.219357 -0.345921 -32.214618 -0.000000 0.000000 0.000000 -0.698212 -2.962767 2.095672 0.000000 0.000000 0.000000 -1.032820 0.082338 -32.322100 0.346819 1.361349 0.033767 2.093114 1.462071 -2.009986 0.000000 0.000000 0.000000
50.594029 107.538307 332.890389 -0.016647 0.420534 32.044776 -0.209020 -0.365290 -32.045381 -0.000000 0.000000 0.000000 0.772902 -1.337623 -0.396837 0.000000 0.000000 0.000000 -0.402708 -0.850008 0.096238 6.393972 -1.857809 -1.319479 -13.931124 6.896321 3.329086 10.044127 1.275989 -0.717298 0.000000 0.000000 0.000000 0.000000 0.000000 0.000000 -0.000000 0.000000 0.000000 -0.579671 0.679989 0.177746 -5.337203 1.460225 -0.588960 5.907201 1.042106 0.845320 0.000000 0.000000 0.000000 0.000000 0.000000 0.000000 -0.209020 -0.365290 -32.045381 -0.400992 0.702029 -0.071329 -0.376328 -3.046384 1.978137 0.000000 0.000000 0.000000 -1.077954 0.059910 -32.167383 0.348680 1.385053 0.035902 2.386764 0.651314 -1.899907 0.000000 0.000000 0.000000
